<svg width="45" height="45" viewBox="0 0 45 45" fill="none" xmlns="http://www.w3.org/2000/svg">
<circle cx="22.5" cy="22.5" r="21.5" stroke="#101113" stroke-width="2"/>
<path d="M14.25 20.9494C14.25 19.2522 14.25 18.4036 14.5931 17.6577C14.9362 16.9118 15.5805 16.3595 16.8691 15.255L18.1191 14.1836C20.4482 12.1872 21.6128 11.189 23 11.189C24.3872 11.189 25.5518 12.1872 27.8809 14.1836L29.1309 15.255C30.4195 16.3595 31.0638 16.9118 31.4069 17.6577C31.75 18.4036 31.75 19.2522 31.75 20.9494V26.2499C31.75 28.6069 31.75 29.7855 31.0178 30.5177C30.2855 31.2499 29.107 31.2499 26.75 31.2499H19.25C16.893 31.2499 15.7145 31.2499 14.9822 30.5177C14.25 29.7855 14.25 28.6069 14.25 26.2499V20.9494Z" stroke="#101113" stroke-width="2"/>
<path d="M26.125 31.25V24.75C26.125 24.1977 25.6773 23.75 25.125 23.75H20.875C20.3227 23.75 19.875 24.1977 19.875 24.75V31.25" stroke="#101113" stroke-width="2" stroke-linecap="round" stroke-linejoin="round"/>
</svg>
