<svg width="32" height="32" viewBox="0 0 32 32" fill="none" xmlns="http://www.w3.org/2000/svg">
<path d="M16 -0.000488281C7.16479 -0.000488281 0 7.16431 0 15.9995C0 24.8347 7.16479 31.9995 16 31.9995C24.8352 31.9995 32 24.8347 32 15.9995C32 7.16431 24.8352 -0.000488281 16 -0.000488281ZM25.1321 19.7874C25.0876 20.7654 24.9321 21.4331 24.7051 22.0176C24.2278 23.2517 23.2522 24.2273 22.0181 24.7046C21.4338 24.9316 20.7659 25.0869 19.7881 25.1316C18.8083 25.1763 18.4954 25.187 16.0002 25.187C13.5049 25.187 13.1921 25.1763 12.2122 25.1316C11.2344 25.0869 10.5664 24.9316 9.98218 24.7046C9.3689 24.4739 8.81372 24.1123 8.35474 23.6448C7.88745 23.186 7.52588 22.6306 7.29517 22.0176C7.06812 21.4333 6.9126 20.7654 6.86816 19.7876C6.823 18.8076 6.8125 18.4946 6.8125 15.9995C6.8125 13.5044 6.823 13.1914 6.86792 12.2117C6.91235 11.2336 7.06763 10.5659 7.29468 9.98145C7.52539 9.36841 7.88721 8.81299 8.35474 8.35425C8.81348 7.88672 9.3689 7.52515 9.98193 7.29443C10.5664 7.06738 11.2341 6.91211 12.2122 6.86743C13.1919 6.82275 13.5049 6.81201 16 6.81201C18.4951 6.81201 18.8081 6.82275 19.7878 6.86768C20.7659 6.91211 21.4336 7.06738 22.0181 7.29419C22.6311 7.5249 23.1865 7.88672 23.6455 8.35425C24.1128 8.81323 24.4746 9.36841 24.7051 9.98145C24.9324 10.5659 25.0876 11.2336 25.1323 12.2117C25.177 13.1914 25.1875 13.5044 25.1875 15.9995C25.1875 18.4946 25.177 18.8076 25.1321 19.7874Z" fill="#101113"/>
<path d="M19.0625 15.9995C19.0625 17.6909 17.6914 19.062 16 19.062C14.3086 19.062 12.9375 17.6909 12.9375 15.9995C12.9375 14.3081 14.3086 12.937 16 12.937C17.6914 12.937 19.0625 14.3081 19.0625 15.9995Z" fill="#101113"/>
<path d="M23.1631 10.5808C23.0159 10.1819 22.781 9.8208 22.4758 9.52441C22.1794 9.21924 21.8186 8.98438 21.4194 8.83716C21.0957 8.71143 20.6094 8.56177 19.7136 8.521C18.7446 8.47681 18.4541 8.46729 16.001 8.46729C13.5476 8.46729 13.2571 8.47656 12.2883 8.52075C11.3926 8.56177 10.906 8.71143 10.5825 8.83716C10.1833 8.98438 9.82227 9.21924 9.52612 9.52441C9.22095 9.8208 8.98608 10.1816 8.83862 10.5808C8.71289 10.9045 8.56323 11.3911 8.52246 12.2869C8.47827 13.2556 8.46875 13.5461 8.46875 15.9995C8.46875 18.4526 8.47827 18.7432 8.52246 19.7122C8.56323 20.6079 8.71289 21.0942 8.83862 21.418C8.98608 21.8171 9.2207 22.178 9.52588 22.4744C9.82227 22.7795 10.1831 23.0144 10.5823 23.1616C10.906 23.2876 11.3926 23.4373 12.2883 23.478C13.2571 23.5222 13.5474 23.5315 16.0007 23.5315C18.4543 23.5315 18.7449 23.5222 19.7134 23.478C20.6091 23.4373 21.0957 23.2876 21.4194 23.1616C22.2207 22.8525 22.854 22.2192 23.1631 21.418C23.2888 21.0942 23.4385 20.6079 23.4795 19.7122C23.5237 18.7432 23.533 18.4526 23.533 15.9995C23.533 13.5461 23.5237 13.2556 23.4795 12.2869C23.4387 11.3911 23.2891 10.9045 23.1631 10.5808ZM16.001 20.717C13.3953 20.717 11.283 18.605 11.283 15.9993C11.283 13.3936 13.3953 11.2815 16.001 11.2815C18.6064 11.2815 20.7188 13.3936 20.7188 15.9993C20.7188 18.605 18.6064 20.717 16.001 20.717ZM20.9053 12.1975C20.2964 12.1975 19.8027 11.7039 19.8027 11.095C19.8027 10.4861 20.2964 9.99243 20.9053 9.99243C21.5142 9.99243 22.0078 10.4861 22.0078 11.095C22.0076 11.7039 21.5142 12.1975 20.9053 12.1975Z" fill="#101113"/>
</svg>
